<?xml version="1.0" encoding="UTF-8"?>
<svg xmlns="http://www.w3.org/2000/svg" viewBox="0 0 1200 900">
<title>22 Business Finance Icon Pack</title>

<rect width="1200" height="900" fill="#F8FAFC"/>
<text x="600" y="70" text-anchor="middle" font-family="Arial" font-size="30" font-weight="800" letter-spacing="6" fill="#0F172A">BUSINESS / FINANCE ICON PACK</text>
<g fill="none" stroke="#0F766E" stroke-width="9" stroke-linecap="round" stroke-linejoin="round">
<rect x="120" y="150" width="180" height="150" rx="18"/><path d="M155 260l45-55 35 30 40-70"/>
<circle cx="455" cy="225" r="75"/><path d="M455 180v90m-30-65q30-35 60 0m-60 40q30 35 60 0"/>
<path d="M650 300V160h170v140M680 200h110M680 245h110"/>
<path d="M940 285q0-110 110-110v110z"/>
<rect x="120" y="410" width="180" height="120" rx="15"/><path d="M150 470h120M150 500h80"/>
<path d="M410 535l35-90 35 90m-55-25h40M570 535l40-90 40 90m-65-25h50"/>
<circle cx="810" cy="475" r="70"/><path d="M775 475h70M810 440v70"/>
<path d="M980 540l35-120 55 120zM1005 465h35"/>
</g>
<text x="600" y="690" text-anchor="middle" font-family="Arial" font-size="22" font-weight="700" letter-spacing="5" fill="#334155">GROWTH • REVENUE • ANALYTICS • INVESTMENT</text>

</svg>