<svg xmlns="http://www.w3.org/2000/svg" width="1080" height="1080" viewBox="0 0 1080 1080">
  <defs><linearGradient id="bg3" x1="0" y1="0" x2="1" y2="1"><stop stop-color="#031d1b"/><stop offset="1" stop-color="#092f38"/></linearGradient><linearGradient id="g3" x1="0" y1="0" x2="0" y2="1"><stop stop-color="#62ffb2"/><stop offset="1" stop-color="#00bfa6"/></linearGradient><filter id="glow3"><feGaussianBlur stdDeviation="8" result="b"/><feMerge><feMergeNode in="b"/><feMergeNode in="SourceGraphic"/></feMerge></filter></defs>
  <rect width="1080" height="1080" fill="url(#bg3)"/>
  <g opacity=".13" fill="#62ffb2" font-family="monospace" font-size="20"><text x="40" y="70">01010110 11000101 01101010 10110100</text><text x="610" y="160">AUTH // VERIFY // PROTECT</text><text x="40" y="1000">ENCRYPTED CONNECTION • SECURE ACCESS</text></g>
  <text x="75" y="160" fill="#62ffb2" font-size="28" font-family="Arial,sans-serif" font-weight="700" letter-spacing="6">CYBERSECURITY AWARENESS</text>
  <text x="70" y="300" fill="#fff" font-size="94" font-family="Arial,sans-serif" font-weight="900">THINK BEFORE</text><text x="70" y="405" fill="url(#g3)" font-size="104" font-family="Arial,sans-serif" font-weight="900">YOU CLICK.</text>
  <text x="75" y="478" fill="#b9d8d4" font-size="30" font-family="Arial,sans-serif">One careful second can protect your digital life.</text>
  <g transform="translate(615 500)" filter="url(#glow3)"><path d="M190 20l170 65v128c0 128-72 210-170 263C92 423 20 341 20 213V85z" fill="#071f25" stroke="url(#g3)" stroke-width="14"/><rect x="117" y="205" width="146" height="118" rx="24" fill="url(#g3)"/><path d="M144 205v-40c0-65 92-65 92 0v40" fill="none" stroke="#62ffb2" stroke-width="24" stroke-linecap="round"/><circle cx="190" cy="258" r="18" fill="#042023"/><path d="M190 274v25" stroke="#042023" stroke-width="13" stroke-linecap="round"/></g>
  <g font-family="Arial,sans-serif"><circle cx="105" cy="650" r="28" fill="#62ffb2"/><text x="105" y="660" text-anchor="middle" fill="#032521" font-size="28" font-weight="900">1</text><text x="155" y="660" fill="#fff" font-size="30" font-weight="700">Check the sender</text><circle cx="105" cy="735" r="28" fill="#62ffb2"/><text x="105" y="745" text-anchor="middle" fill="#032521" font-size="28" font-weight="900">2</text><text x="155" y="745" fill="#fff" font-size="30" font-weight="700">Verify every link</text><circle cx="105" cy="820" r="28" fill="#62ffb2"/><text x="105" y="830" text-anchor="middle" fill="#032521" font-size="28" font-weight="900">3</text><text x="155" y="830" fill="#fff" font-size="30" font-weight="700">Use strong passwords</text></g>
  <rect x="75" y="905" width="420" height="70" rx="35" fill="#62ffb2"/><text x="285" y="951" text-anchor="middle" fill="#032521" font-size="26" font-family="Arial,sans-serif" font-weight="900">PAUSE • CHECK • PROTECT</text>
</svg>
