<svg xmlns="http://www.w3.org/2000/svg" width="1080" height="1080" viewBox="0 0 1080 1080">
  <defs><linearGradient id="bg10" x1="0" y1="0" x2="1" y2="1"><stop stop-color="#fff3d8"/><stop offset="1" stop-color="#dff7ef"/></linearGradient><linearGradient id="g10"><stop stop-color="#ff7a59"/><stop offset="1" stop-color="#ffb24a"/></linearGradient></defs>
  <rect width="1080" height="1080" fill="url(#bg10)"/>
  <circle cx="920" cy="160" r="190" fill="#77d8bd" opacity=".55"/><circle cx="140" cy="920" r="260" fill="#ffb75d" opacity=".3"/>
  <text x="70" y="115" fill="#267a66" font-size="25" font-family="Arial,sans-serif" font-weight="800" letter-spacing="6">DAILY WELLNESS CAMPAIGN</text>
  <text x="65" y="290" fill="#163d36" font-size="104" font-family="Arial,sans-serif" font-weight="900">MOVE MORE.</text><text x="65" y="400" fill="url(#g10)" font-size="104" font-family="Arial,sans-serif" font-weight="900">FEEL BETTER.</text>
  <text x="70" y="475" fill="#4f716a" font-size="30" font-family="Arial,sans-serif">Small joyful movement can brighten the whole day.</text>
  <g transform="translate(630 485)"><circle cx="180" cy="85" r="58" fill="#ff9f66"/><path d="M180 150c-95 0-110 115-102 220h204c8-105-7-220-102-220z" fill="#5f49cc"/><path d="M90 190L15 285M270 190l75 95" fill="none" stroke="#5f49cc" stroke-width="38" stroke-linecap="round"/><path d="M130 360l-65 150M230 360l65 150" fill="none" stroke="#2a7162" stroke-width="42" stroke-linecap="round"/><path d="M20 285c60-40 105-20 145 20M340 285c-60-40-105-20-145 20" fill="none" stroke="#ff9f66" stroke-width="24" stroke-linecap="round"/></g>
  <g transform="translate(70 610)" font-family="Arial,sans-serif"><rect width="420" height="235" rx="40" fill="#fff"/><circle cx="55" cy="65" r="24" fill="#77d8bd"/><text x="98" y="75" fill="#163d36" font-size="27" font-weight="800">Stretch for a minute</text><circle cx="55" cy="127" r="24" fill="#ffb24a"/><text x="98" y="137" fill="#163d36" font-size="27" font-weight="800">Walk when you can</text><circle cx="55" cy="189" r="24" fill="#ff7a59"/><text x="98" y="199" fill="#163d36" font-size="27" font-weight="800">Rest and recharge</text></g>
  <rect x="70" y="920" width="455" height="76" rx="38" fill="#267a66"/><text x="298" y="969" text-anchor="middle" fill="#fff" font-size="26" font-family="Arial,sans-serif" font-weight="900">ONE POSITIVE STEP TODAY</text><text x="995" y="970" text-anchor="end" fill="#68998e" font-size="20" font-family="Arial,sans-serif">WELLNESS DESIGN 10</text>
</svg>
