<svg xmlns="http://www.w3.org/2000/svg" width="1080" height="1080" viewBox="0 0 1080 1080">
  <defs><linearGradient id="sky11" x1="0" y1="0" x2="0" y2="1"><stop stop-color="#ffcc79"/><stop offset=".52" stop-color="#f79567"/><stop offset="1" stop-color="#5a4d84"/></linearGradient><linearGradient id="sun11"><stop stop-color="#fff7c1"/><stop offset="1" stop-color="#ffbf54"/></linearGradient></defs>
  <rect width="1080" height="1080" fill="url(#sky11)"/>
  <circle cx="780" cy="310" r="150" fill="url(#sun11)" opacity=".9"/>
  <path d="M0 650L180 470l170 145 190-250 220 270 140-155 180 150v450H0z" fill="#3d3d70" opacity=".8"/><path d="M0 735l220-125 190 105 225-175 220 175 225-95v460H0z" fill="#213d55"/><path d="M0 825c210-110 360 75 550-30s320-30 530 30v255H0z" fill="#19483e"/>
  <path d="M0 890c200-60 350 65 540 10s350-30 540 30" fill="none" stroke="#73b884" stroke-width="20" opacity=".6"/>
  <g transform="translate(690 560)" fill="#1e243d"><rect x="70" y="105" width="250" height="170"/><path d="M35 105h320L195 0z"/><rect x="125" y="175" width="55" height="100" fill="#ffbb63"/><rect x="220" y="150" width="55" height="55" fill="#ffcf7f"/><path d="M20 275h350" stroke="#e4bd75" stroke-width="14"/></g>
  <text x="65" y="125" fill="#fff7dc" font-size="25" font-family="Arial,sans-serif" font-weight="800" letter-spacing="7">DISCOVER THE HEART OF BIHAR</text>
  <text x="60" y="285" fill="#fff" font-size="117" font-family="Georgia,serif" font-weight="700">EXPLORE</text><text x="60" y="405" fill="#2e3159" font-size="125" font-family="Georgia,serif" font-weight="700">LAKHISARAI</text>
  <text x="68" y="470" fill="#fff5da" font-size="30" font-family="Arial,sans-serif">History • Hills • Heritage • Home</text>
  <rect x="65" y="940" width="330" height="70" rx="35" fill="#ffcf78"/><text x="230" y="985" text-anchor="middle" fill="#30345f" font-size="25" font-family="Arial,sans-serif" font-weight="900">PLAN YOUR JOURNEY</text><text x="1000" y="986" text-anchor="end" fill="#c8b9b2" font-size="21" font-family="Arial,sans-serif">TRAVEL POSTER 11</text>
</svg>
