<svg xmlns="http://www.w3.org/2000/svg" width="1080" height="1080" viewBox="0 0 1080 1080">
  <defs><linearGradient id="bg14" x1="0" y1="0" x2="1" y2="1"><stop stop-color="#101b4b"/><stop offset="1" stop-color="#031022"/></linearGradient><linearGradient id="g14"><stop stop-color="#00d9ff"/><stop offset="1" stop-color="#3c69ff"/></linearGradient><filter id="glow14"><feGaussianBlur stdDeviation="10" result="b"/><feMerge><feMergeNode in="b"/><feMergeNode in="SourceGraphic"/></feMerge></filter></defs>
  <rect width="1080" height="1080" fill="url(#bg14)"/>
  <path d="M0 870L1080 540v540H0z" fill="#182d72" opacity=".65"/><circle cx="900" cy="130" r="220" fill="#ffd94d" opacity=".15"/>
  <rect x="65" y="65" width="270" height="58" rx="29" fill="#ffda45"/><text x="200" y="104" text-anchor="middle" fill="#13204c" font-size="23" font-family="Arial,sans-serif" font-weight="900">BUILD WITH ME</text>
  <text x="60" y="300" fill="#fff" font-size="132" font-family="Arial,sans-serif" font-weight="900">15 PYTHON</text><text x="60" y="430" fill="url(#g14)" font-size="132" font-family="Arial,sans-serif" font-weight="900" filter="url(#glow14)">PROJECTS</text>
  <text x="65" y="505" fill="#bfd5ff" font-size="31" font-family="Arial,sans-serif">Beginner to portfolio-ready • Full source code</text>
  <g transform="translate(580 560) rotate(4)"><rect width="410" height="300" rx="32" fill="#071125" stroke="#00d9ff" stroke-width="5"/><circle cx="45" cy="42" r="9" fill="#ff5a73"/><circle cx="75" cy="42" r="9" fill="#ffda45"/><circle cx="105" cy="42" r="9" fill="#3dde9e"/><g fill="#a9c4ff" font-family="monospace" font-size="23"><text x="35" y="105"><tspan fill="#00d9ff">def</tspan> build_project():</text><text x="55" y="152">idea = <tspan fill="#ffda45">"real"</tspan></text><text x="55" y="199">code = <tspan fill="#ffda45">"tested"</tspan></text><text x="55" y="246"><tspan fill="#00d9ff">return</tspan> portfolio</text></g></g>
  <g transform="translate(65 620)" font-family="Arial,sans-serif"><rect width="430" height="230" rx="36" fill="#fff"/><text x="35" y="65" fill="#13204c" font-size="25" font-weight="900">INCLUDES</text><text x="35" y="118" fill="#40547f" font-size="24">✓ Automation &amp; CLI tools</text><text x="35" y="163" fill="#40547f" font-size="24">✓ REST API &amp; SQLite</text><text x="35" y="208" fill="#40547f" font-size="24">✓ Tests for every project</text></g>
  <rect x="65" y="930" width="400" height="80" rx="40" fill="#ffda45"/><text x="265" y="981" text-anchor="middle" fill="#101b4b" font-size="28" font-family="Arial,sans-serif" font-weight="900">WATCH &amp; START CODING</text><text x="1000" y="982" text-anchor="end" fill="#718ec8" font-size="20" font-family="Arial,sans-serif">THUMBNAIL 14</text>
</svg>
